<svg height="200px" width="200px" version="1.1" id="Capa_1" xmlns="http://www.w3.org/2000/svg" xmlns:xlink="http://www.w3.org/1999/xlink" viewBox="0 0 58 58" xml:space="preserve" fill="#000000"><g id="SVGRepo_bgCarrier" stroke-width="0"></g><g id="SVGRepo_tracerCarrier" stroke-linecap="round" stroke-linejoin="round"></g><g id="SVGRepo_iconCarrier"> <g> <path style="fill:#3193fc;" d="M34.064,54.07c-0.539-0.12-0.879-0.654-0.76-1.193c0.121-0.539,0.663-0.874,1.193-0.759l7.252,1.614 c0.003-0.002,0.007-0.003,0.01-0.005l0.171,0.045l0.326,0.073c0.027,0.006,0.047,0.024,0.073,0.032L58,58l-4.988-14.963 C55.543,38.78,57,33.812,57,28.5C57,12.76,44.24,0,28.5,0S0,12.76,0,28.5S12.76,57,28.5,57c3.603,0,7.048-0.673,10.221-1.894 L34.064,54.07z"></path> <circle style="fill:#FFFFFF;" cx="14.773" cy="29" r="3"></circle> <circle style="fill:#FFFFFF;" cx="27.773" cy="29" r="3"></circle> <circle style="fill:#FFFFFF;" cx="40.773" cy="29" r="3"></circle> </g> </g></svg>